<svg enable-background="new 0 0 32 32" height="512" viewBox="0 0 32 32" width="512" xmlns="http://www.w3.org/2000/svg"><path d="m26 32h-20c-3.314 0-6-2.686-6-6v-20c0-3.314 2.686-6 6-6h20c3.314 0 6 2.686 6 6v20c0 3.314-2.686 6-6 6z" fill="#f5e6fe"/><path d="m20 23.333h-9.333c-1.103 0-2-.897-2-2v-9.333c0-1.103.897-2 2-2h5.333c.368 0 .667.298.667.667 0 .368-.299.667-.667.667h-5.333c-.368-.001-.667.298-.667.666v9.333c0 .368.299.667.667.667h9.333c.368 0 .667-.299.667-.667v-5.333c0-.368.299-.667.667-.667s.666.299.666.667v5.333c0 1.103-.897 2-2 2z" fill="#d9a4fc"/><path d="m22.667 8.667h-4c-.27 0-.513.162-.616.411s-.046.536.145.727l1.529 1.529-4.862 4.862c-.26.26-.26.682 0 .943.13.13.301.195.471.195.171 0 .341-.065.471-.195l4.862-4.862 1.529 1.529c.127.126.297.194.471.194.086 0 .173-.016.255-.051.249-.103.411-.346.411-.616v-4c0-.368-.298-.666-.666-.666z" fill="#be63f9"/></svg>