<svg id="Layer_1" enable-background="new 0 0 512 512" height="512" viewBox="0 0 512 512" width="512" xmlns="http://www.w3.org/2000/svg"><path d="m300.662 156.381h-284.787c-8.73 0-15.875 7.154-15.875 15.898v227.347c0 8.742 7.145 15.897 15.875 15.897h52.119v62.736c0 8.742 5.053 10.835 11.225 4.656l67.305-67.393h218.644c8.729 0 15.876-7.155 15.876-15.897v-162.777c-39.916-9.024-71.397-40.536-80.382-80.467z" fill="#c7eefd"/><path d="m32.451 399.626v-227.347c0-8.744 7.145-15.898 15.875-15.898h-32.451c-8.73 0-15.875 7.154-15.875 15.898v227.347c0 8.742 7.145 15.897 15.875 15.897h32.451c-8.73 0-15.875-7.155-15.875-15.897z" fill="#98e5fb"/><g fill="#0592fb"><path d="m300.932 247.488h-220.817c-4.142 0-7.5-3.357-7.5-7.5s3.358-7.5 7.5-7.5h220.817c4.143 0 7.5 3.357 7.5 7.5s-3.358 7.5-7.5 7.5z"/><path d="m300.932 294.035h-220.817c-4.142 0-7.5-3.357-7.5-7.5s3.358-7.5 7.5-7.5h220.817c4.143 0 7.5 3.357 7.5 7.5s-3.358 7.5-7.5 7.5z"/><path d="m196.669 340.587h-116.554c-4.142 0-7.5-3.357-7.5-7.5s3.358-7.5 7.5-7.5h116.554c4.142 0 7.5 3.357 7.5 7.5 0 4.142-3.358 7.5-7.5 7.5z"/></g><path d="m512 132.996c0 59.352-48.11 107.469-107.466 107.469-59.353 0-107.466-48.117-107.466-107.469 0-59.351 48.113-107.463 107.466-107.463 59.356 0 107.466 48.112 107.466 107.463z" fill="#fdd302"/><path d="m329.143 132.996c0-53.899 39.684-98.528 91.429-106.271-5.232-.783-10.587-1.192-16.037-1.192-59.353 0-107.466 48.112-107.466 107.463 0 59.352 48.113 107.469 107.466 107.469 5.45 0 10.805-.409 16.037-1.192-51.745-7.744-91.429-52.376-91.429-106.277z" fill="#f9c500"/><path d="m404.534 189.165c-15.107 0-30.216-5.7-41.717-17.1-2.942-2.916-2.964-7.665-.048-10.606 2.917-2.941 7.666-2.963 10.607-.048 17.182 17.029 45.135 17.029 62.316 0 2.94-2.915 7.689-2.895 10.606.048 2.916 2.941 2.895 7.69-.048 10.606-11.5 11.4-26.608 17.1-41.716 17.1z" fill="#8b3d27"/><path d="m467.219 131.492c-4.143 0-7.5-3.357-7.5-7.5 0-5.892-4.905-10.686-10.936-10.686s-10.938 4.794-10.938 10.686c0 4.143-3.357 7.5-7.5 7.5s-7.5-3.357-7.5-7.5c0-14.163 11.636-25.686 25.938-25.686 14.301 0 25.936 11.522 25.936 25.686 0 4.143-3.358 7.5-7.5 7.5z" fill="#8b3d27"/><path d="m378.724 131.492c-4.143 0-7.5-3.357-7.5-7.5 0-5.892-4.907-10.686-10.938-10.686-6.03 0-10.936 4.794-10.936 10.686 0 4.143-3.357 7.5-7.5 7.5s-7.5-3.357-7.5-7.5c0-14.163 11.635-25.686 25.936-25.686 14.303 0 25.938 11.522 25.938 25.686 0 4.143-3.358 7.5-7.5 7.5z" fill="#8b3d27"/><path d="m0 106.233c0 2.833 2.318 5.151 5.151 5.151h204.13c2.833 0 5.151-2.318 5.151-5.151v-61.243c0-2.833-2.318-5.151-5.151-5.151h-204.13c-2.833 0-5.151 2.318-5.151 5.151z" fill="#0592fb"/><path d="m32.297 106.233v-61.243c0-2.833 2.318-5.151 5.151-5.151h-32.297c-2.833 0-5.151 2.318-5.151 5.151v61.243c0 2.833 2.318 5.151 5.151 5.151h32.297c-2.833.001-5.151-2.318-5.151-5.151z" fill="#0181fb"/><path d="m171.792 83.109h-135.738c-4.142 0-7.5-3.357-7.5-7.5s3.358-7.5 7.5-7.5h135.738c4.142 0 7.5 3.357 7.5 7.5s-3.358 7.5-7.5 7.5z" fill="#62dafa"/></svg>